<svg viewBox="0 0 1000 1000" xmlns="http://www.w3.org/2000/svg">
  <rect width="1000" height="1000" fill="#0a0a0a"/>
  <defs>
    <filter id="glow">
      <feGaussianBlur stdDeviation="2" result="coloredBlur"/>
      <feMerge>
        <feMergeNode in="coloredBlur"/>
        <feMergeNode in="SourceGraphic"/>
      </feMerge>
    </filter>
  </defs>
<g id="connections" opacity="0.3">
  <line x1="300.3257245532111" y1="726.3775104307967" 
                        x2="606.6854565808583" y2="667.8302682196768" 
                        stroke="white" stroke-width="1"/>
  <line x1="300.3257245532111" y1="726.3775104307967" 
                        x2="712.8340726791777" y2="244.62293664077202" 
                        stroke="white" stroke-width="1"/>
  <line x1="712.8340726791777" y1="244.62293664077202" 
                        x2="279.8637745367745" y2="860.5418386776098" 
                        stroke="white" stroke-width="1"/>
</g>
<g id="nodes">
  <circle cx="272.811053809775" cy="742.4617326304841" r="1" fill="white" opacity="0.9"/>
  <circle cx="299.5838916930718" cy="756.7365881421025" r="1" fill="white" opacity="0.9"/>
  <circle cx="298.387826604678" cy="721.8917287035185" r="1" fill="white" opacity="0.9"/>
  <circle cx="300.1950967530232" cy="724.9823034829683" r="1" fill="white" opacity="0.9"/>
  <circle cx="295.01629601175426" cy="720.2772980438119" r="1" fill="white" opacity="0.9"/>
  <circle cx="312.7598072276441" cy="751.291577513931" r="1" fill="white" opacity="0.9"/>
  <circle cx="321.57358520952346" cy="736.3645750931191" r="1" fill="white" opacity="0.9"/>
  <circle cx="301.5925886314424" cy="711.0007147404629" r="1" fill="white" opacity="0.9"/>
  <circle cx="294.72903295944747" cy="724.9808895157082" r="1" fill="white" opacity="0.9"/>
  <circle cx="319.08643921180703" cy="724.0783800612675" r="1" fill="white" opacity="0.9"/>
  <circle cx="295.8910526692952" cy="710.1161442110861" r="1" fill="white" opacity="0.9"/>
  <circle cx="313.5854403065646" cy="716.9204824726835" r="1" fill="white" opacity="0.9"/>
  <circle cx="287.23800615952007" cy="719.66377256037" r="1" fill="white" opacity="0.9"/>
  <circle cx="276.16858098714965" cy="736.0814632773852" r="1" fill="white" opacity="0.9"/>
  <circle cx="300.7330246637399" cy="725.7160795239631" r="1" fill="white" opacity="0.9"/>
  <circle cx="282.4029658626873" cy="711.1691277293696" r="1" fill="white" opacity="0.9"/>
  <circle cx="324.24044158064106" cy="731.3253485186556" r="1" fill="white" opacity="0.9"/>
  <circle cx="300.9445726579995" cy="729.6472972274307" r="1" fill="white" opacity="0.9"/>
  <circle cx="288.93048794556245" cy="698.0740663819697" r="1" fill="white" opacity="0.9"/>
  <circle cx="306.5601260357538" cy="715.3774354962102" r="1" fill="white" opacity="0.9"/>
  <circle cx="298.5120359340069" cy="726.4670824923368" r="1" fill="white" opacity="0.9"/>
  <circle cx="302.7877751831603" cy="725.7646906356694" r="1" fill="white" opacity="0.9"/>
  <circle cx="304.75048136048036" cy="738.1150606480093" r="1" fill="white" opacity="0.9"/>
  <circle cx="299.88040057917635" cy="722.7317969943264" r="1" fill="white" opacity="0.9"/>
  <circle cx="324.18893338286443" cy="738.9465410790176" r="1" fill="white" opacity="0.9"/>
  <circle cx="311.50939495396915" cy="720.6281604249143" r="1" fill="white" opacity="0.9"/>
  <circle cx="322.6084092672584" cy="741.7837478432673" r="1" fill="white" opacity="0.9"/>
  <circle cx="314.20693366267466" cy="698.6334587762694" r="1" fill="white" opacity="0.9"/>
  <circle cx="299.9871594795911" cy="726.8147450225218" r="1" fill="white" opacity="0.9"/>
  <circle cx="296.1850862899767" cy="712.0885837070713" r="1" fill="white" opacity="0.9"/>
  <circle cx="304.1307764886081" cy="755.7152872127776" r="1" fill="white" opacity="0.9"/>
  <circle cx="296.1567460530579" cy="724.9226542855695" r="1" fill="white" opacity="0.9"/>
  <circle cx="279.3789890640359" cy="719.3142716568659" r="1" fill="white" opacity="0.9"/>
  <circle cx="300.8828291614577" cy="746.0575051625538" r="1" fill="white" opacity="0.9"/>
  <circle cx="283.6628708699254" cy="742.6412849119732" r="1" fill="white" opacity="0.9"/>
  <circle cx="309.3674069043888" cy="740.074919739559" r="1" fill="white" opacity="0.9"/>
  <circle cx="292.3695405098104" cy="733.4105967892771" r="1" fill="white" opacity="0.9"/>
  <circle cx="327.46786852849954" cy="732.132279783204" r="1" fill="white" opacity="0.9"/>
  <circle cx="274.7755629373126" cy="701.2395438513324" r="1" fill="white" opacity="0.9"/>
  <circle cx="286.8544714808849" cy="731.0963033161069" r="1" fill="white" opacity="0.9"/>
  <circle cx="309.96827104867464" cy="721.1996283743798" r="1" fill="white" opacity="0.9"/>
  <circle cx="310.13246459324773" cy="713.8052096707936" r="1" fill="white" opacity="0.9"/>
  <circle cx="320.6309170234036" cy="738.5396602073263" r="1" fill="white" opacity="0.9"/>
  <circle cx="303.70545745470133" cy="714.1444973988791" r="1" fill="white" opacity="0.9"/>
  <circle cx="306.3559275993112" cy="698.0729089207923" r="1" fill="white" opacity="0.9"/>
  <circle cx="273.3415111040759" cy="721.4705969779907" r="1" fill="white" opacity="0.9"/>
  <circle cx="306.39902039860993" cy="736.6011391965453" r="1" fill="white" opacity="0.9"/>
  <circle cx="328.10236082479344" cy="722.1662833320814" r="1" fill="white" opacity="0.9"/>
  <circle cx="309.59585045303754" cy="715.0117466082422" r="1" fill="white" opacity="0.9"/>
  <circle cx="319.75446792990556" cy="735.907566336548" r="1" fill="white" opacity="0.9"/>
  <circle cx="302.3426273317324" cy="728.4197355548513" r="1" fill="white" opacity="0.9"/>
  <circle cx="295.0937747577258" cy="731.9993428693692" r="1" fill="white" opacity="0.9"/>
  <circle cx="306.63693085203914" cy="733.1821744857718" r="1" fill="white" opacity="0.9"/>
  <circle cx="267.4233071753414" cy="731.8914385175802" r="1" fill="white" opacity="0.9"/>
  <circle cx="309.3280322742085" cy="746.8363472075771" r="1" fill="white" opacity="0.9"/>
  <circle cx="327.1776873967334" cy="727.0676555771778" r="1" fill="white" opacity="0.9"/>
  <circle cx="300.4547069075207" cy="723.9881394141598" r="1" fill="white" opacity="0.9"/>
  <circle cx="302.3640181156191" cy="739.1166446862148" r="1" fill="white" opacity="0.9"/>
  <circle cx="282.13161848485095" cy="702.2053926482556" r="1" fill="white" opacity="0.9"/>
  <circle cx="298.6517936793497" cy="739.4972979970923" r="1" fill="white" opacity="0.9"/>
  <circle cx="286.80871859967016" cy="725.9146737697697" r="1" fill="white" opacity="0.9"/>
  <circle cx="322.7880757695971" cy="721.1164571606748" r="1" fill="white" opacity="0.9"/>
  <circle cx="301.9548554314455" cy="727.7759004766366" r="1" fill="white" opacity="0.9"/>
  <circle cx="277.6013619487379" cy="705.5183121198819" r="1" fill="white" opacity="0.9"/>
  <circle cx="297.1582441934186" cy="762.1134628210299" r="1" fill="white" opacity="0.9"/>
  <circle cx="297.9685711459674" cy="732.644408388279" r="1" fill="white" opacity="0.9"/>
  <circle cx="313.0760700783672" cy="739.9960584777241" r="1" fill="white" opacity="0.9"/>
  <circle cx="294.66507595089166" cy="696.0284031283102" r="1" fill="white" opacity="0.9"/>
  <circle cx="302.581416097503" cy="727.4165661303617" r="1" fill="white" opacity="0.9"/>
  <circle cx="308.50665550427624" cy="757.0602889239178" r="1" fill="white" opacity="0.9"/>
  <circle cx="305.0354755898227" cy="732.0591212941739" r="1" fill="white" opacity="0.9"/>
  <circle cx="300.3614678877967" cy="726.5202426205146" r="1" fill="white" opacity="0.9"/>
  <circle cx="277.42590042078365" cy="703.6501137993815" r="1" fill="white" opacity="0.9"/>
  <circle cx="283.04854623923796" cy="734.6204438224776" r="1" fill="white" opacity="0.9"/>
  <circle cx="288.08864945914996" cy="744.727755547067" r="1" fill="white" opacity="0.9"/>
  <circle cx="314.95455879872117" cy="730.5473315262509" r="1" fill="white" opacity="0.9"/>
  <circle cx="283.9417944248591" cy="701.344010889529" r="1" fill="white" opacity="0.9"/>
  <circle cx="323.2713941875651" cy="733.1532750280076" r="1" fill="white" opacity="0.9"/>
  <circle cx="322.37436397509146" cy="709.0101365274513" r="1" fill="white" opacity="0.9"/>
  <circle cx="312.3021418838158" cy="721.3812698649876" r="1" fill="white" opacity="0.9"/>
  <circle cx="299.9327886244093" cy="700.6320003758534" r="1" fill="white" opacity="0.9"/>
  <circle cx="298.5361420177248" cy="738.2031579356341" r="1" fill="white" opacity="0.9"/>
  <circle cx="297.7284048651008" cy="728.8237509259866" r="1" fill="white" opacity="0.9"/>
  <circle cx="293.27470154407115" cy="735.318087548437" r="1" fill="white" opacity="0.9"/>
  <circle cx="322.94588000837956" cy="713.6957068844283" r="1" fill="white" opacity="0.9"/>
  <circle cx="273.26536255867416" cy="706.6922529344224" r="1" fill="white" opacity="0.9"/>
  <circle cx="321.99896113358386" cy="740.6286744179788" r="1" fill="white" opacity="0.9"/>
  <circle cx="324.11896793611135" cy="712.9231882557748" r="1" fill="white" opacity="0.9"/>
  <circle cx="298.0028950094789" cy="726.0013081552618" r="1" fill="white" opacity="0.9"/>
  <circle cx="315.51302010598516" cy="731.5040952016908" r="1" fill="white" opacity="0.9"/>
  <circle cx="333.58372820615966" cy="721.049799755177" r="1" fill="white" opacity="0.9"/>
  <circle cx="331.6778058003648" cy="729.1936342308268" r="1" fill="white" opacity="0.9"/>
  <circle cx="297.98768450876554" cy="733.4287180204939" r="1" fill="white" opacity="0.9"/>
  <circle cx="309.31233503602976" cy="729.6472920233224" r="1" fill="white" opacity="0.9"/>
  <circle cx="301.52423423019474" cy="691.2102310512715" r="1" fill="white" opacity="0.9"/>
  <circle cx="287.6048061978687" cy="754.5426503960307" r="1" fill="white" opacity="0.9"/>
  <circle cx="293.95416180546727" cy="720.4059857248384" r="1" fill="white" opacity="0.9"/>
  <circle cx="301.69757399179764" cy="728.1456706192711" r="1" fill="white" opacity="0.9"/>
  <circle cx="312.940820101806" cy="737.6329708580804" r="1" fill="white" opacity="0.9"/>
  <circle cx="306.55538406408215" cy="740.8140243683015" r="1" fill="white" opacity="0.9"/>
  <circle cx="616.7198876913898" cy="675.0738985753262" r="1" fill="white" opacity="0.8"/>
  <circle cx="605.3478809477068" cy="670.7030782387243" r="1" fill="white" opacity="0.8"/>
  <circle cx="608.1339683009172" cy="666.17798534178" r="1" fill="white" opacity="0.8"/>
  <circle cx="606.4491548286982" cy="677.3593864824122" r="1" fill="white" opacity="0.8"/>
  <circle cx="582.5743200057243" cy="687.0346085893347" r="1" fill="white" opacity="0.8"/>
  <circle cx="608.354124564021" cy="666.5798299727364" r="1" fill="white" opacity="0.8"/>
  <circle cx="606.196465815074" cy="667.6966916466448" r="1" fill="white" opacity="0.8"/>
  <circle cx="621.1891857958262" cy="644.6641584726823" r="1" fill="white" opacity="0.8"/>
  <circle cx="630.5531688455984" cy="668.9205736331566" r="1" fill="white" opacity="0.8"/>
  <circle cx="591.0147630386889" cy="695.3004877133468" r="1" fill="white" opacity="0.8"/>
  <circle cx="609.6333149919213" cy="667.9145162841511" r="1" fill="white" opacity="0.8"/>
  <circle cx="617.3792179642672" cy="664.1658771379234" r="1" fill="white" opacity="0.8"/>
  <circle cx="631.9551539829077" cy="683.5380030845511" r="1" fill="white" opacity="0.8"/>
  <circle cx="599.9488853876993" cy="658.4797056068236" r="1" fill="white" opacity="0.8"/>
  <circle cx="582.7523226606838" cy="646.6510240057036" r="1" fill="white" opacity="0.8"/>
  <circle cx="600.9414808573346" cy="680.3927858432481" r="1" fill="white" opacity="0.8"/>
  <circle cx="619.8584208300633" cy="674.3125002407851" r="1" fill="white" opacity="0.8"/>
  <circle cx="603.0382824202458" cy="652.7330972427582" r="1" fill="white" opacity="0.8"/>
  <circle cx="597.8188555629073" cy="651.1918649392869" r="1" fill="white" opacity="0.8"/>
  <circle cx="582.9832070547957" cy="654.3749150374605" r="1" fill="white" opacity="0.8"/>
  <circle cx="612.5129871420465" cy="645.5014303329685" r="1" fill="white" opacity="0.8"/>
  <circle cx="606.6009988849819" cy="671.2963868048868" r="1" fill="white" opacity="0.8"/>
  <circle cx="606.4694361107089" cy="667.8633935767231" r="1" fill="white" opacity="0.8"/>
  <circle cx="619.2662223155924" cy="673.547194774439" r="1" fill="white" opacity="0.8"/>
  <circle cx="613.3311974960636" cy="662.9940608038665" r="1" fill="white" opacity="0.8"/>
  <circle cx="603.8290527956786" cy="667.5383671019554" r="1" fill="white" opacity="0.8"/>
  <circle cx="611.2467162880467" cy="669.884277803826" r="1" fill="white" opacity="0.8"/>
  <circle cx="598.0700041987361" cy="667.3817237167893" r="1" fill="white" opacity="0.8"/>
  <circle cx="616.036946605569" cy="675.5407493566945" r="1" fill="white" opacity="0.8"/>
  <circle cx="606.1921378734395" cy="689.4695491450708" r="1" fill="white" opacity="0.8"/>
  <circle cx="611.7394878010808" cy="670.3970505277858" r="1" fill="white" opacity="0.8"/>
  <circle cx="614.4698662588663" cy="649.3653560290832" r="1" fill="white" opacity="0.8"/>
  <circle cx="629.6622762683647" cy="670.0659124721434" r="1" fill="white" opacity="0.8"/>
  <circle cx="617.3701955522359" cy="695.8644922441332" r="1" fill="white" opacity="0.8"/>
  <circle cx="582.8282965607401" cy="680.5089516800108" r="1" fill="white" opacity="0.8"/>
  <circle cx="634.7981392332562" cy="680.087875486269" r="1" fill="white" opacity="0.8"/>
  <circle cx="603.431853486855" cy="659.0862485453328" r="1" fill="white" opacity="0.8"/>
  <circle cx="610.9467710980244" cy="675.0169173450389" r="1" fill="white" opacity="0.8"/>
  <circle cx="594.7139802813017" cy="657.307456454903" r="1" fill="white" opacity="0.8"/>
  <circle cx="628.0911615441239" cy="670.8024274213105" r="1" fill="white" opacity="0.8"/>
  <circle cx="607.0396352892858" cy="676.1915973384537" r="1" fill="white" opacity="0.8"/>
  <circle cx="614.4229390391541" cy="663.235361735059" r="1" fill="white" opacity="0.8"/>
  <circle cx="607.9429444127452" cy="669.0898535762785" r="1" fill="white" opacity="0.8"/>
  <circle cx="612.2675067550807" cy="662.0272575090785" r="1" fill="white" opacity="0.8"/>
  <circle cx="607.8942877015523" cy="667.7026917804214" r="1" fill="white" opacity="0.8"/>
  <circle cx="614.4098197592408" cy="685.3706396264273" r="1" fill="white" opacity="0.8"/>
  <circle cx="595.8160287672076" cy="674.9457327272182" r="1" fill="white" opacity="0.8"/>
  <circle cx="583.9274147468145" cy="655.6012085739873" r="1" fill="white" opacity="0.8"/>
  <circle cx="620.1327761221878" cy="661.3060946621165" r="1" fill="white" opacity="0.8"/>
  <circle cx="606.5490792954848" cy="667.5574013645198" r="1" fill="white" opacity="0.8"/>
  <circle cx="611.2424719762688" cy="675.1442789982246" r="1" fill="white" opacity="0.8"/>
  <circle cx="618.4437067615346" cy="644.3959800886464" r="1" fill="white" opacity="0.8"/>
  <circle cx="608.3114935757101" cy="638.1852958709896" r="1" fill="white" opacity="0.8"/>
  <circle cx="602.5228913270906" cy="692.3452109528597" r="1" fill="white" opacity="0.8"/>
  <circle cx="618.0454055415554" cy="671.6602024543257" r="1" fill="white" opacity="0.8"/>
  <circle cx="608.0445519597426" cy="667.16519990179" r="1" fill="white" opacity="0.8"/>
  <circle cx="597.1271480868998" cy="679.7751777495571" r="1" fill="white" opacity="0.8"/>
  <circle cx="596.547708997235" cy="674.3433215074916" r="1" fill="white" opacity="0.8"/>
  <circle cx="616.6174522765511" cy="695.5320823839587" r="1" fill="white" opacity="0.8"/>
  <circle cx="591.0377822152797" cy="655.6082286294195" r="1" fill="white" opacity="0.8"/>
  <circle cx="634.3785610095704" cy="662.8662961896275" r="1" fill="white" opacity="0.8"/>
  <circle cx="597.4384136814821" cy="679.2879436313442" r="1" fill="white" opacity="0.8"/>
  <circle cx="617.3386665553263" cy="665.1927163178966" r="1" fill="white" opacity="0.8"/>
  <circle cx="590.4128394864399" cy="650.9022004172315" r="1" fill="white" opacity="0.8"/>
  <circle cx="614.9069708167533" cy="652.1506505085416" r="1" fill="white" opacity="0.8"/>
  <circle cx="610.883511766896" cy="655.2714547213017" r="1" fill="white" opacity="0.8"/>
  <circle cx="615.364895413855" cy="671.3075878054237" r="1" fill="white" opacity="0.8"/>
  <circle cx="599.9659971989539" cy="651.2205138183342" r="1" fill="white" opacity="0.8"/>
  <circle cx="626.1326861814231" cy="676.0486790038622" r="1" fill="white" opacity="0.8"/>
  <circle cx="609.8406206637002" cy="668.051589803161" r="1" fill="white" opacity="0.8"/>
  <circle cx="602.1472230657351" cy="674.1592738546698" r="1" fill="white" opacity="0.8"/>
  <circle cx="610.8191053437889" cy="662.904315975285" r="1" fill="white" opacity="0.8"/>
  <circle cx="620.571816964567" cy="642.1225028318639" r="1" fill="white" opacity="0.8"/>
  <circle cx="596.96481205934" cy="678.7936860695264" r="1" fill="white" opacity="0.8"/>
  <circle cx="598.9712295408112" cy="667.7802834484224" r="1" fill="white" opacity="0.8"/>
  <circle cx="616.3195554671777" cy="650.9381970914669" r="1" fill="white" opacity="0.8"/>
  <circle cx="587.7623467199156" cy="677.9905002695098" r="1" fill="white" opacity="0.8"/>
  <circle cx="585.5244234091213" cy="665.2330264635368" r="1" fill="white" opacity="0.8"/>
  <circle cx="599.0019796316649" cy="669.377567009349" r="1" fill="white" opacity="0.8"/>
  <circle cx="601.3912211776196" cy="670.4479004834145" r="1" fill="white" opacity="0.8"/>
  <circle cx="626.0128082240498" cy="678.7563211464434" r="1" fill="white" opacity="0.8"/>
  <circle cx="603.536072024043" cy="666.7481034894907" r="1" fill="white" opacity="0.8"/>
  <circle cx="624.58928843876" cy="644.8960062543729" r="1" fill="white" opacity="0.8"/>
  <circle cx="624.8732644486296" cy="655.2192624257113" r="1" fill="white" opacity="0.8"/>
  <circle cx="610.7129928797094" cy="665.3092860406753" r="1" fill="white" opacity="0.8"/>
  <circle cx="613.2413541956548" cy="690.1831418538388" r="1" fill="white" opacity="0.8"/>
  <circle cx="596.9443854080315" cy="653.0201937035807" r="1" fill="white" opacity="0.8"/>
  <circle cx="616.3945954644897" cy="645.762816123903" r="1" fill="white" opacity="0.8"/>
  <circle cx="578.3167861081249" cy="668.6462298224403" r="1" fill="white" opacity="0.8"/>
  <circle cx="616.3710621370718" cy="683.8562545543527" r="1" fill="white" opacity="0.8"/>
  <circle cx="603.5194626525724" cy="667.933915862712" r="1" fill="white" opacity="0.8"/>
  <circle cx="609.1805905817704" cy="644.9240398428392" r="1" fill="white" opacity="0.8"/>
  <circle cx="609.0010067224596" cy="668.8086294317865" r="1" fill="white" opacity="0.8"/>
  <circle cx="593.6165767520638" cy="661.3809278652925" r="1" fill="white" opacity="0.8"/>
  <circle cx="581.2299514528711" cy="680.7356426784376" r="1" fill="white" opacity="0.8"/>
  <circle cx="610.2693116975533" cy="678.1584281084339" r="1" fill="white" opacity="0.8"/>
  <circle cx="608.1600636551154" cy="666.1178494346269" r="1" fill="white" opacity="0.8"/>
  <circle cx="605.9432605521563" cy="670.4854657966947" r="1" fill="white" opacity="0.8"/>
  <circle cx="609.7985419396482" cy="685.1732551733639" r="1" fill="white" opacity="0.8"/>
  <circle cx="595.4955610820149" cy="656.2778158561867" r="1" fill="white" opacity="0.8"/>
  <circle cx="684.3490450320413" cy="249.7968162427926" r="1" fill="white" opacity="0.95"/>
  <circle cx="728.0819912162228" cy="271.7141422997582" r="1" fill="white" opacity="0.95"/>
  <circle cx="716.4946195257495" cy="262.4711632772417" r="1" fill="white" opacity="0.95"/>
  <circle cx="710.7233851667457" cy="281.83243393303565" r="1" fill="white" opacity="0.95"/>
  <circle cx="729.3825467817715" cy="274.9511922934114" r="1" fill="white" opacity="0.95"/>
  <circle cx="741.5957639023443" cy="258.8675191676695" r="1" fill="white" opacity="0.95"/>
  <circle cx="728.0942771333343" cy="251.2644086897829" r="1" fill="white" opacity="0.95"/>
  <circle cx="733.8483689884653" cy="217.44396832940902" r="1" fill="white" opacity="0.95"/>
  <circle cx="702.4840864176709" cy="220.3926636439483" r="1" fill="white" opacity="0.95"/>
  <circle cx="737.6248467289856" cy="269.9431543102946" r="1" fill="white" opacity="0.95"/>
  <circle cx="709.8224068876884" cy="257.73551266933316" r="1" fill="white" opacity="0.95"/>
  <circle cx="713.3202919924871" cy="233.28213587086606" r="1" fill="white" opacity="0.95"/>
  <circle cx="684.7193535283386" cy="247.67726983288807" r="1" fill="white" opacity="0.95"/>
  <circle cx="738.8018979321929" cy="251.6969588522398" r="1" fill="white" opacity="0.95"/>
  <circle cx="706.1104739390066" cy="281.89585071771666" r="1" fill="white" opacity="0.95"/>
  <circle cx="728.2430240075348" cy="243.41738930859213" r="1" fill="white" opacity="0.95"/>
  <circle cx="738.7124351929937" cy="251.49015600429652" r="1" fill="white" opacity="0.95"/>
  <circle cx="740.9665801699466" cy="254.74646061339132" r="1" fill="white" opacity="0.95"/>
  <circle cx="729.1405984498954" cy="216.02504366381496" r="1" fill="white" opacity="0.95"/>
  <circle cx="708.088755635374" cy="248.68551884658837" r="1" fill="white" opacity="0.95"/>
  <circle cx="721.3237772044608" cy="243.36556699943475" r="1" fill="white" opacity="0.95"/>
  <circle cx="709.4590202205022" cy="243.9792235363326" r="1" fill="white" opacity="0.95"/>
  <circle cx="734.3547923308345" cy="220.32241272314357" r="1" fill="white" opacity="0.95"/>
  <circle cx="698.328919277737" cy="257.83212365149024" r="1" fill="white" opacity="0.95"/>
  <circle cx="711.4081308532898" cy="238.44896663958957" r="1" fill="white" opacity="0.95"/>
  <circle cx="733.3998468285604" cy="237.77619895468752" r="1" fill="white" opacity="0.95"/>
  <circle cx="728.8227632813022" cy="217.60172150773587" r="1" fill="white" opacity="0.95"/>
  <circle cx="714.5515060122482" cy="243.41419532060192" r="1" fill="white" opacity="0.95"/>
  <circle cx="689.5573559049715" cy="267.6151050940566" r="1" fill="white" opacity="0.95"/>
  <circle cx="715.6594483512266" cy="250.76939720618722" r="1" fill="white" opacity="0.95"/>
  <circle cx="701.2195262787916" cy="231.07769739051255" r="1" fill="white" opacity="0.95"/>
  <circle cx="722.216225937544" cy="239.53728672675825" r="1" fill="white" opacity="0.95"/>
  <circle cx="723.8471844132962" cy="252.71868201849296" r="1" fill="white" opacity="0.95"/>
  <circle cx="699.0042300297263" cy="216.91873084149535" r="1" fill="white" opacity="0.95"/>
  <circle cx="727.2005437506227" cy="273.834845346258" r="1" fill="white" opacity="0.95"/>
  <circle cx="691.2486843125419" cy="249.45514626206136" r="1" fill="white" opacity="0.95"/>
  <circle cx="689.142315009855" cy="229.6926312723764" r="1" fill="white" opacity="0.95"/>
  <circle cx="719.2809842854514" cy="256.90025496052334" r="1" fill="white" opacity="0.95"/>
  <circle cx="684.6919938788157" cy="248.43828306148723" r="1" fill="white" opacity="0.95"/>
  <circle cx="695.925561801739" cy="232.8419928368222" r="1" fill="white" opacity="0.95"/>
  <circle cx="702.6365011352657" cy="239.08217627104256" r="1" fill="white" opacity="0.95"/>
  <circle cx="722.3017284053533" cy="281.02768016149673" r="1" fill="white" opacity="0.95"/>
  <circle cx="731.3605491675188" cy="260.3100646512539" r="1" fill="white" opacity="0.95"/>
  <circle cx="718.4620660032247" cy="269.0104955615936" r="1" fill="white" opacity="0.95"/>
  <circle cx="679.6042670523257" cy="236.35477414279933" r="1" fill="white" opacity="0.95"/>
  <circle cx="689.834636502703" cy="230.41392471819654" r="1" fill="white" opacity="0.95"/>
  <circle cx="693.2126550930797" cy="249.37945201032727" r="1" fill="white" opacity="0.95"/>
  <circle cx="713.4999329894363" cy="243.872073482744" r="1" fill="white" opacity="0.95"/>
  <circle cx="687.1860373759507" cy="222.95369138520073" r="1" fill="white" opacity="0.95"/>
  <circle cx="706.1767745764182" cy="246.07776492262946" r="1" fill="white" opacity="0.95"/>
  <circle cx="733.0895629338497" cy="267.95400970289114" r="1" fill="white" opacity="0.95"/>
  <circle cx="739.4632413818241" cy="261.583354501321" r="1" fill="white" opacity="0.95"/>
  <circle cx="702.7382175612623" cy="259.11036864559924" r="1" fill="white" opacity="0.95"/>
  <circle cx="723.8645077600337" cy="214.71974917029993" r="1" fill="white" opacity="0.95"/>
  <circle cx="708.8239947546904" cy="275.274849298342" r="1" fill="white" opacity="0.95"/>
  <circle cx="727.2063748821648" cy="223.21648309023448" r="1" fill="white" opacity="0.95"/>
  <circle cx="707.1457779355733" cy="247.30730581901327" r="1" fill="white" opacity="0.95"/>
  <circle cx="693.5732373898096" cy="275.8230746702066" r="1" fill="white" opacity="0.95"/>
  <circle cx="720.8793747777601" cy="252.3179871306026" r="1" fill="white" opacity="0.95"/>
  <circle cx="710.3013435469824" cy="214.29282866177832" r="1" fill="white" opacity="0.95"/>
  <circle cx="685.860563616793" cy="249.1761819437816" r="1" fill="white" opacity="0.95"/>
  <circle cx="707.5875452075455" cy="246.9593722419018" r="1" fill="white" opacity="0.95"/>
  <circle cx="731.4051435134336" cy="216.17186564241194" r="1" fill="white" opacity="0.95"/>
  <circle cx="736.6396251019157" cy="221.98764858858453" r="1" fill="white" opacity="0.95"/>
  <circle cx="677.0691903605621" cy="246.09809175500402" r="1" fill="white" opacity="0.95"/>
  <circle cx="719.707806524909" cy="240.44823217691197" r="1" fill="white" opacity="0.95"/>
  <circle cx="714.1597679749306" cy="243.361093930751" r="1" fill="white" opacity="0.95"/>
  <circle cx="714.645978146884" cy="219.21003466400725" r="1" fill="white" opacity="0.95"/>
  <circle cx="738.8609461771259" cy="257.3644614820505" r="1" fill="white" opacity="0.95"/>
  <circle cx="712.0972918492012" cy="246.11013022198836" r="1" fill="white" opacity="0.95"/>
  <circle cx="716.0967982703421" cy="244.97652381754924" r="1" fill="white" opacity="0.95"/>
  <circle cx="712.2777732888226" cy="238.10668959464795" r="1" fill="white" opacity="0.95"/>
  <circle cx="712.3367086267169" cy="244.4680593599041" r="1" fill="white" opacity="0.95"/>
  <circle cx="701.9965599829682" cy="242.26754994465819" r="1" fill="white" opacity="0.95"/>
  <circle cx="711.1544248052189" cy="233.61870767300752" r="1" fill="white" opacity="0.95"/>
  <circle cx="721.8543877676861" cy="234.37765708463294" r="1" fill="white" opacity="0.95"/>
  <circle cx="727.6801072397342" cy="278.8565705382176" r="1" fill="white" opacity="0.95"/>
  <circle cx="700.8030051906055" cy="254.91304899157507" r="1" fill="white" opacity="0.95"/>
  <circle cx="683.6541000902083" cy="237.96223816512392" r="1" fill="white" opacity="0.95"/>
  <circle cx="711.0083233619484" cy="244.35991344502375" r="1" fill="white" opacity="0.95"/>
  <circle cx="713.1547839470074" cy="247.048358016022" r="1" fill="white" opacity="0.95"/>
  <circle cx="715.5835938103353" cy="230.64742130270855" r="1" fill="white" opacity="0.95"/>
  <circle cx="689.1508825683965" cy="230.58167629759365" r="1" fill="white" opacity="0.95"/>
  <circle cx="714.3673079806996" cy="233.61858762408002" r="1" fill="white" opacity="0.95"/>
  <circle cx="678.9173835268462" cy="228.38164910047198" r="1" fill="white" opacity="0.95"/>
  <circle cx="697.3704841784872" cy="241.5233477490545" r="1" fill="white" opacity="0.95"/>
  <circle cx="696.3428220612678" cy="242.28779563197105" r="1" fill="white" opacity="0.95"/>
  <circle cx="708.0678629587431" cy="232.2302149983475" r="1" fill="white" opacity="0.95"/>
  <circle cx="701.5849937285483" cy="215.63568931663005" r="1" fill="white" opacity="0.95"/>
  <circle cx="724.1487701153351" cy="249.53449393017087" r="1" fill="white" opacity="0.95"/>
  <circle cx="684.5884184608888" cy="241.77908928241533" r="1" fill="white" opacity="0.95"/>
  <circle cx="713.529990221283" cy="244.09356416565387" r="1" fill="white" opacity="0.95"/>
  <circle cx="703.8878899889944" cy="253.6873660275937" r="1" fill="white" opacity="0.95"/>
  <circle cx="736.6129882336274" cy="241.76489783154287" r="1" fill="white" opacity="0.95"/>
  <circle cx="727.9574903978213" cy="235.48366590553496" r="1" fill="white" opacity="0.95"/>
  <circle cx="713.1967341135177" cy="243.46842247397362" r="1" fill="white" opacity="0.95"/>
  <circle cx="733.2599826164762" cy="241.0353061288516" r="1" fill="white" opacity="0.95"/>
  <circle cx="737.4461891119838" cy="272.01320072979604" r="1" fill="white" opacity="0.95"/>
  <circle cx="724.7709664652491" cy="213.32002706227235" r="1" fill="white" opacity="0.95"/>
  <circle cx="699.5922008438756" cy="263.765068429657" r="1" fill="white" opacity="0.95"/>
  <circle cx="285.26722515206114" cy="860.9253709887911" r="1" fill="white" opacity="0.85"/>
  <circle cx="267.49205389251364" cy="881.3779189695335" r="1" fill="white" opacity="0.85"/>
  <circle cx="294.74849143982567" cy="881.1870545776521" r="1" fill="white" opacity="0.85"/>
  <circle cx="306.66073749647427" cy="853.1643407498947" r="1" fill="white" opacity="0.85"/>
  <circle cx="269.9820346031747" cy="860.4344256315775" r="1" fill="white" opacity="0.85"/>
  <circle cx="277.0769774981018" cy="881.0677953105213" r="1" fill="white" opacity="0.85"/>
  <circle cx="279.2785864066795" cy="881.4998156744858" r="1" fill="white" opacity="0.85"/>
  <circle cx="288.7108085431016" cy="867.6018553417148" r="1" fill="white" opacity="0.85"/>
  <circle cx="286.8965361199489" cy="866.6046787466034" r="1" fill="white" opacity="0.85"/>
  <circle cx="304.0096978299275" cy="872.8132135565436" r="1" fill="white" opacity="0.85"/>
  <circle cx="278.1523440509757" cy="871.0269017650273" r="1" fill="white" opacity="0.85"/>
  <circle cx="273.6363944134077" cy="860.421003842644" r="1" fill="white" opacity="0.85"/>
  <circle cx="275.7144143279052" cy="867.7701015864587" r="1" fill="white" opacity="0.85"/>
  <circle cx="275.06467192659267" cy="852.1832968024027" r="1" fill="white" opacity="0.85"/>
  <circle cx="281.00963156628103" cy="831.8308262328517" r="1" fill="white" opacity="0.85"/>
  <circle cx="271.09781731134825" cy="839.5859207780254" r="1" fill="white" opacity="0.85"/>
  <circle cx="258.37319305775753" cy="870.6214194669275" r="1" fill="white" opacity="0.85"/>
  <circle cx="269.42572375157755" cy="870.921094268391" r="1" fill="white" opacity="0.85"/>
  <circle cx="304.0620179943627" cy="854.7776858340866" r="1" fill="white" opacity="0.85"/>
  <circle cx="303.1890310668011" cy="862.121968341953" r="1" fill="white" opacity="0.85"/>
  <circle cx="272.91144682282106" cy="886.3603215747524" r="1" fill="white" opacity="0.85"/>
  <circle cx="255.63638661643984" cy="874.3426466143308" r="1" fill="white" opacity="0.85"/>
  <circle cx="290.77511858975123" cy="837.4419070200292" r="1" fill="white" opacity="0.85"/>
  <circle cx="295.31479996075217" cy="866.1475161219867" r="1" fill="white" opacity="0.85"/>
  <circle cx="271.14179616163835" cy="859.7446696830091" r="1" fill="white" opacity="0.85"/>
  <circle cx="264.40467009563656" cy="884.0041894742824" r="1" fill="white" opacity="0.85"/>
  <circle cx="260.99693776860875" cy="880.8601848046353" r="1" fill="white" opacity="0.85"/>
  <circle cx="308.68109886520904" cy="850.7158720486683" r="1" fill="white" opacity="0.85"/>
  <circle cx="283.0565154521426" cy="877.264714735374" r="1" fill="white" opacity="0.85"/>
  <circle cx="287.8089222297382" cy="875.241332636898" r="1" fill="white" opacity="0.85"/>
  <circle cx="274.8024208252427" cy="863.3967280488927" r="1" fill="white" opacity="0.85"/>
  <circle cx="268.37983535347814" cy="866.8056358635793" r="1" fill="white" opacity="0.85"/>
  <circle cx="285.9286850235937" cy="848.9478053672121" r="1" fill="white" opacity="0.85"/>
  <circle cx="297.2245741201943" cy="852.2339373625025" r="1" fill="white" opacity="0.85"/>
  <circle cx="281.5659719142118" cy="863.7421746368253" r="1" fill="white" opacity="0.85"/>
  <circle cx="278.682925802173" cy="861.4692977629408" r="1" fill="white" opacity="0.85"/>
  <circle cx="280.7610317252462" cy="860.126741408428" r="1" fill="white" opacity="0.85"/>
  <circle cx="305.7647529685453" cy="878.8633512095763" r="1" fill="white" opacity="0.85"/>
  <circle cx="283.53258476401675" cy="849.564051419663" r="1" fill="white" opacity="0.85"/>
  <circle cx="289.49258552275177" cy="876.3564695376976" r="1" fill="white" opacity="0.85"/>
  <circle cx="285.0221151300254" cy="865.8177158518881" r="1" fill="white" opacity="0.85"/>
  <circle cx="277.140009765082" cy="859.7673327721509" r="1" fill="white" opacity="0.85"/>
  <circle cx="270.79232647719573" cy="831.3968290114822" r="1" fill="white" opacity="0.85"/>
  <circle cx="265.29949427100547" cy="872.9212874765589" r="1" fill="white" opacity="0.85"/>
  <circle cx="293.36599408274105" cy="833.9134142884627" r="1" fill="white" opacity="0.85"/>
  <circle cx="282.7250555676925" cy="870.671364556654" r="1" fill="white" opacity="0.85"/>
  <circle cx="256.6723495229666" cy="840.4857674790925" r="1" fill="white" opacity="0.85"/>
  <circle cx="271.4268045998277" cy="859.240332756168" r="1" fill="white" opacity="0.85"/>
  <circle cx="299.3238155703569" cy="877.1537041610001" r="1" fill="white" opacity="0.85"/>
  <circle cx="279.0394329614675" cy="858.9467863643191" r="1" fill="white" opacity="0.85"/>
  <circle cx="277.885254879231" cy="872.3714362878284" r="1" fill="white" opacity="0.85"/>
  <circle cx="270.93898133875575" cy="874.5134846955626" r="1" fill="white" opacity="0.85"/>
  <circle cx="276.29916332747416" cy="846.7559494506571" r="1" fill="white" opacity="0.85"/>
  <circle cx="297.29179291460497" cy="869.4162875278876" r="1" fill="white" opacity="0.85"/>
  <circle cx="278.75403983139523" cy="860.9250149032789" r="1" fill="white" opacity="0.85"/>
  <circle cx="272.1786970011593" cy="884.8049345491494" r="1" fill="white" opacity="0.85"/>
  <circle cx="272.4633982876681" cy="860.3257313747725" r="1" fill="white" opacity="0.85"/>
  <circle cx="287.3073167879135" cy="832.3548427139966" r="1" fill="white" opacity="0.85"/>
  <circle cx="303.9634355542364" cy="871.0862704837446" r="1" fill="white" opacity="0.85"/>
  <circle cx="280.9524159076144" cy="859.923622397931" r="1" fill="white" opacity="0.85"/>
  <circle cx="284.81444568776016" cy="873.5619959028862" r="1" fill="white" opacity="0.85"/>
  <circle cx="248.33690306423415" cy="851.1620428187417" r="1" fill="white" opacity="0.85"/>
  <circle cx="284.6744665307706" cy="863.4333899815988" r="1" fill="white" opacity="0.85"/>
  <circle cx="286.7719659674103" cy="864.8263271941162" r="1" fill="white" opacity="0.85"/>
  <circle cx="286.8655071381774" cy="834.4295236519638" r="1" fill="white" opacity="0.85"/>
  <circle cx="261.5651968683007" cy="846.5549628110215" r="1" fill="white" opacity="0.85"/>
  <circle cx="294.41698710009126" cy="857.7156321446175" r="1" fill="white" opacity="0.85"/>
  <circle cx="273.66536483127203" cy="873.564307529723" r="1" fill="white" opacity="0.85"/>
  <circle cx="275.69593952803467" cy="868.7413147506395" r="1" fill="white" opacity="0.85"/>
  <circle cx="283.9337921597337" cy="862.3156061347672" r="1" fill="white" opacity="0.85"/>
  <circle cx="281.0901216976792" cy="853.247311266041" r="1" fill="white" opacity="0.85"/>
  <circle cx="277.4243782764488" cy="859.1075519870384" r="1" fill="white" opacity="0.85"/>
  <circle cx="269.2378681486567" cy="863.250067621223" r="1" fill="white" opacity="0.85"/>
  <circle cx="283.04013905731665" cy="886.4120418802357" r="1" fill="white" opacity="0.85"/>
  <circle cx="286.5963107243103" cy="856.2555043163961" r="1" fill="white" opacity="0.85"/>
  <circle cx="252.6369765899377" cy="848.8676120520239" r="1" fill="white" opacity="0.85"/>
  <circle cx="278.1118394154231" cy="836.4545667384548" r="1" fill="white" opacity="0.85"/>
  <circle cx="282.15718830146835" cy="829.1711322491542" r="1" fill="white" opacity="0.85"/>
  <circle cx="308.16703355578994" cy="854.0748673956798" r="1" fill="white" opacity="0.85"/>
  <circle cx="277.7813257983439" cy="854.8922956621514" r="1" fill="white" opacity="0.85"/>
  <circle cx="283.27301536826013" cy="838.8368161666093" r="1" fill="white" opacity="0.85"/>
  <circle cx="286.1904676110491" cy="859.44337284526" r="1" fill="white" opacity="0.85"/>
  <circle cx="302.9324511683149" cy="868.7631892716167" r="1" fill="white" opacity="0.85"/>
  <circle cx="284.11733981657204" cy="850.1761884068645" r="1" fill="white" opacity="0.85"/>
  <circle cx="297.07551269109973" cy="831.6117235039679" r="1" fill="white" opacity="0.85"/>
  <circle cx="252.2392474868437" cy="850.7183918450876" r="1" fill="white" opacity="0.85"/>
  <circle cx="271.54743582905996" cy="853.1492586224404" r="1" fill="white" opacity="0.85"/>
  <circle cx="287.7237934870818" cy="847.6145145000049" r="1" fill="white" opacity="0.85"/>
  <circle cx="293.42760584337526" cy="858.9578027752947" r="1" fill="white" opacity="0.85"/>
  <circle cx="281.60113547352796" cy="870.0288719634032" r="1" fill="white" opacity="0.85"/>
  <circle cx="269.0642603202632" cy="857.8975274667029" r="1" fill="white" opacity="0.85"/>
  <circle cx="304.3275552070575" cy="862.5873316360747" r="1" fill="white" opacity="0.85"/>
  <circle cx="266.3605257490846" cy="868.4818842261554" r="1" fill="white" opacity="0.85"/>
  <circle cx="292.2642652658775" cy="861.5663678513811" r="1" fill="white" opacity="0.85"/>
  <circle cx="280.25093025567037" cy="865.0848688651873" r="1" fill="white" opacity="0.85"/>
  <circle cx="274.0239639400934" cy="847.104853476217" r="1" fill="white" opacity="0.85"/>
  <circle cx="286.69055300487616" cy="846.4980219163069" r="1" fill="white" opacity="0.85"/>
  <circle cx="287.36947068935024" cy="879.976712705176" r="1" fill="white" opacity="0.85"/>
  <circle cx="277.5440272330361" cy="857.0437495533204" r="1" fill="white" opacity="0.85"/>
  <circle cx="273.10109092041785" cy="857.642797317124" r="1" fill="white" opacity="0.85"/>
</g>
</svg>